<?xml version="1.0" standalone="no"?>
<!DOCTYPE svg PUBLIC "-//W3C//DTD SVG 20010904//EN"
 "http://www.w3.org/TR/2001/REC-SVG-20010904/DTD/svg10.dtd">
<svg version="1.0" xmlns="http://www.w3.org/2000/svg"
 width="192.000000pt" height="192.000000pt" viewBox="0 0 192.000000 192.000000"
 preserveAspectRatio="xMidYMid meet">
<metadata>
Created by potrace 1.14, written by Peter Selinger 2001-2017
</metadata>
<g transform="translate(0.000000,192.000000) scale(0.100000,-0.100000)"
fill="#000000" stroke="none">
<path d="M892 1894 c-12 -8 -22 -12 -22 -7 0 4 -4 3 -8 -2 -4 -6 -24 -25 -45
-42 -20 -18 -38 -36 -40 -40 -1 -5 -5 -7 -10 -5 -4 1 -11 -8 -16 -20 -12 -32
-41 -55 -76 -61 -37 -6 -96 -27 -111 -38 -6 -5 -13 -7 -16 -4 -3 3 -36 -11
-73 -30 -38 -19 -73 -35 -77 -35 -15 0 -170 -100 -187 -121 -14 -18 -16 -44
-15 -182 3 -176 11 -352 19 -377 2 -8 7 -40 10 -70 2 -30 7 -66 10 -80 4 -14
9 -38 12 -55 3 -16 9 -38 14 -47 5 -10 7 -18 5 -18 -6 0 18 -73 36 -110 38
-77 163 -220 192 -220 6 0 22 -10 36 -23 24 -22 174 -101 195 -103 6 0 27 -8
49 -17 21 -9 47 -17 57 -17 10 0 20 -3 23 -8 7 -12 87 -6 151 13 33 9 67 18
75 19 26 5 201 85 210 97 3 3 14 9 26 13 30 9 194 171 194 192 0 3 9 26 21 52
11 26 24 56 29 67 13 30 36 126 46 190 2 17 7 41 11 55 6 29 12 68 18 125 2
22 5 40 6 40 1 0 3 23 4 50 2 28 6 75 9 105 11 92 13 233 3 263 -6 18 -36 46
-90 83 -45 31 -89 59 -97 62 -8 3 -33 17 -55 30 -22 14 -41 25 -42 25 -8 -3
-43 10 -43 16 0 4 -11 8 -24 9 -14 1 -41 11 -61 22 -20 11 -40 18 -45 15 -5
-3 -11 -1 -15 4 -3 6 -11 8 -18 5 -7 -2 -18 8 -24 23 -12 28 -108 133 -121
133 -4 0 -18 9 -32 20 -30 24 -68 25 -98 4z"/>
</g>
</svg>
